<svg xmlns="http://www.w3.org/2000/svg" width="27" height="27" viewBox="0 0 27 27">
  <defs>
    <style>
      .cls-1, .cls-3 {
        fill: none;
      }

      .cls-1 {
        stroke: #f2ba00;
      }

      .cls-2 {
        stroke: none;
      }
    </style>
  </defs>
  <g id="그룹_1058" data-name="그룹 1058" transform="translate(0.001)">
    <g id="타원_43" data-name="타원 43" class="cls-1" transform="translate(-0.001)">
      <circle class="cls-2" cx="13.5" cy="13.5" r="13.5"/>
      <circle class="cls-3" cx="13.5" cy="13.5" r="13"/>
    </g>
    <g id="Layer_2" transform="translate(7.176 5.422)">
      <g id="그룹_934" data-name="그룹 934" transform="translate(0 0)">
        <path id="패스_7151" data-name="패스 7151" d="M148.995,92.024v.621a1.153,1.153,0,0,0,.868,1.111,6.12,6.12,0,0,0,.937.037h2.074c2.693,0-.179-.024.937,0H155.9a9.333,9.333,0,0,0,.937-.037,1.142,1.142,0,0,0,.868-1.111v-.621a1.127,1.127,0,0,0-.331-.8c1.706-1.844,2.468-3.688,2.274-5.476a6.131,6.131,0,0,0-2.205-3.88,1.15,1.15,0,0,0,.262-.726v-.621a1.147,1.147,0,0,0-1.15-1.142h-2.73V78.266a.469.469,0,0,0-.937,0v1.1h-2.736A1.147,1.147,0,0,0,149,80.507v.621a1.15,1.15,0,0,0,.262.726,6.131,6.131,0,0,0-2.205,3.88c-.194,1.794.569,3.632,2.274,5.476A1.185,1.185,0,0,0,148.995,92.024Zm5.4-9.741a7.543,7.543,0,0,1,1.293,2.626,6.037,6.037,0,0,1-1.812,5.973h-1.075a6.032,6.032,0,0,1-1.818-5.935,7.5,7.5,0,0,1,1.306-2.663Zm2.155,9.524a.21.21,0,0,1,.212.211v.621a.21.21,0,0,1-.212.211h-6.4a.21.21,0,0,1-.212-.211v-.621a.21.21,0,0,1,.212-.211Zm2.162-5.96c.175,1.6-.6,3.3-2.305,5.035h-1.274a6.8,6.8,0,0,0,1.468-6.2,8.457,8.457,0,0,0-1.062-2.4h.918A5.456,5.456,0,0,1,158.716,85.846Zm-8.784-5.333a.21.21,0,0,1,.212-.211h6.4a.21.21,0,0,1,.212.211v.621a.21.21,0,0,1-.212.211h-6.4a.21.21,0,0,1-.212-.211v-.621Zm-1.949,5.339a5.522,5.522,0,0,1,2.255-3.576h.918a8.458,8.458,0,0,0-1.062,2.4,6.8,6.8,0,0,0,1.468,6.2h-1.274C148.589,89.143,147.814,87.454,147.983,85.852Z" transform="translate(-147.029 -77.8)"/>
      </g>
    </g>
  </g>
</svg>
