<svg xmlns="http://www.w3.org/2000/svg" width="27" height="27" viewBox="0 0 27 27">
  <defs>
    <style>
      .cls-1, .cls-4 {
        fill: none;
      }

      .cls-1 {
        stroke: #f2ba00;
      }

      .cls-2 {
        fill: #fff;
      }

      .cls-3 {
        stroke: none;
      }
    </style>
  </defs>
  <g id="그룹_1060" data-name="그룹 1060" transform="translate(-921 -3357.401)">
    <g id="타원_45" data-name="타원 45" class="cls-1" transform="translate(921 3357.401)">
      <ellipse class="cls-3" cx="13.5" cy="13.5" rx="13.5" ry="13.5"/>
      <ellipse class="cls-4" cx="13.5" cy="13.5" rx="13" ry="13"/>
    </g>
    <path id="directions_car_FILL0_wght400_GRAD0_opsz48" class="cls-2" d="M7.269,18.817v.856a.461.461,0,0,1-.476.476H6.476A.461.461,0,0,1,6,19.674V14.536l1.348-4.06a.7.7,0,0,1,.262-.349A.718.718,0,0,1,8.03,10h7.358a.718.718,0,0,1,.42.127.7.7,0,0,1,.262.349l1.348,4.06v5.138a.461.461,0,0,1-.476.476h-.333a.436.436,0,0,1-.333-.135.478.478,0,0,1-.127-.341v-.856Zm.048-5.233H16.1l-.872-2.633H8.188Zm-.365.952v0Zm1.681,2.537a.816.816,0,0,0,.611-.254.837.837,0,0,0,.246-.6.883.883,0,0,0-.246-.626.8.8,0,0,0-.611-.262.893.893,0,0,0-.888.888.8.8,0,0,0,.262.611A.883.883,0,0,0,8.633,17.073Zm6.169,0a.868.868,0,0,0,.626-.254.811.811,0,0,0,.262-.6.893.893,0,0,0-.888-.888.8.8,0,0,0-.611.262.883.883,0,0,0-.246.626.816.816,0,0,0,.254.611A.837.837,0,0,0,14.8,17.073Zm-7.85.793h9.515v-3.33H6.952Z" transform="translate(922.791 3355.679)"/>
  </g>
</svg>
