<svg xmlns="http://www.w3.org/2000/svg" width="218" height="80" viewBox="0 0 218 80">
  <defs>
    <style>
      .cls-1 {
        fill: #707f94;
        stroke: #fff;
        stroke-width: 3px;
      }

      .cls-2 {
        fill: #435368;
      }

      .cls-3, .cls-4, .cls-5 {
        fill: #fff;
      }

      .cls-3 {
        font-size: 14px;
      }

      .cls-3, .cls-4 {
        font-family: NotoSansKR-Regular, Noto Sans KR;
      }

      .cls-4 {
        font-size: 16px;
      }

      .cls-6 {
        stroke: #000;
      }

      .cls-7 {
        stroke: none;
      }

      .cls-8 {
        fill: none;
      }
    </style>
  </defs>
  <g id="그룹_1224" data-name="그룹 1224" transform="translate(-101 -3452)">
    <g id="사각형_1031" data-name="사각형 1031" class="cls-1" transform="translate(101 3452)">
      <rect class="cls-7" width="218" height="80"/>
      <rect class="cls-8" x="1.5" y="1.5" width="215" height="77"/>
    </g>
    <rect id="사각형_1032" data-name="사각형 1032" class="cls-2" width="50" height="6" transform="translate(174.178 3505.269)"/>
    <g id="그룹_1221" data-name="그룹 1221" transform="translate(172.184 3469.859)">
      <text id="예매하기" class="cls-3" transform="translate(0 37.282)"><tspan x="0" y="0">예매하기</tspan></text>
      <text id="_3단계" data-name="3단계" class="cls-4" transform="translate(21 19)"><tspan x="-19.16" y="0">3단계</tspan></text>
    </g>
    <g id="그룹_1103" data-name="그룹 1103" transform="translate(122.364 3473)">
      <g id="그룹_916" data-name="그룹 916">
        <g id="그룹_896" data-name="그룹 896">
          <path id="패스_7135" data-name="패스 7135" class="cls-5" d="M-11961.474,8693.308l2.007-1.616h23.431l2,1.914v34.839l-3.314.838h-23.354l-.771-1.855Z" transform="translate(11962.714 -8690.782)"/>
          <g id="phone-svgrepo-com">
            <g id="그룹_882" data-name="그룹 882">
              <path id="패스_7122" data-name="패스 7122" d="M103.656,36.529a3.125,3.125,0,0,0,3.357,2.815h22.869a3.125,3.125,0,0,0,3.357-2.815V2.815A3.125,3.125,0,0,0,129.881,0H107.013a3.125,3.125,0,0,0-3.357,2.815Zm2.008-30.413H131.23v23.7H105.664Zm0-3.3a1.3,1.3,0,0,1,1.349-1.247h22.869a1.3,1.3,0,0,1,1.349,1.247V4.549H105.664ZM131.23,36.529a1.3,1.3,0,0,1-1.349,1.247H107.013a1.3,1.3,0,0,1-1.349-1.247V31.383H131.23Z" transform="translate(-103.656)"/>
              <path id="패스_7123" data-name="패스 7123" d="M225.731,417.68a2.581,2.581,0,1,0-2.871-2.565A2.734,2.734,0,0,0,225.731,417.68Zm0-3.307a.747.747,0,1,1-.831.742A.791.791,0,0,1,225.731,414.373Z" transform="translate(-210.94 -380.558)"/>
              <path id="패스_7124" data-name="패스 7124" d="M234.595,30.061h-1.9a.917.917,0,1,0,0,1.823h1.9a.917.917,0,1,0,0-1.823Z" transform="translate(-218.852 -27.721)"/>
            </g>
          </g>
        </g>
      </g>
      <g id="calendar-svgrepo-com" transform="translate(7.176 10.622)">
        <g id="그룹_918" data-name="그룹 918" transform="translate(0 0)">
          <g id="그룹_917" data-name="그룹 917">
            <path id="패스_7149" data-name="패스 7149" class="cls-6" d="M12.856,1.376V.861a.872.872,0,0,0-1.744,0v.515H3.725V.861a.872.872,0,0,0-1.743,0v.515H0V14.66H14.837V1.376ZM11.706.861a.278.278,0,0,1,.557,0v1.3h-.557V.861Zm-9.131,0a.278.278,0,0,1,.556,0v1.3H2.575ZM14.244,14.073H.593V5.164h13.65Zm0-9.5H.593V1.962H1.981v.783H3.725V1.962h7.388v.783h1.744V1.962h1.388Z" transform="translate(0 0)"/>
          </g>
        </g>
        <g id="그룹_920" data-name="그룹 920" transform="translate(3.555 6.998)">
          <g id="그룹_919" data-name="그룹 919">
            <path id="패스_7150" data-name="패스 7150" class="cls-6" d="M137.505,235.01l-4.607,4.157-2.187-1.973-.466.412L132.9,240l5.073-4.579Z" transform="translate(-130.245 -235.01)"/>
          </g>
        </g>
      </g>
    </g>
  </g>
</svg>
