<svg xmlns="http://www.w3.org/2000/svg" width="26.998" height="26.998" viewBox="0 0 26.998 26.998">
  <defs>
    <style>
      .cls-1, .cls-4 {
        fill: none;
      }

      .cls-1 {
        stroke: #f2ba00;
      }

      .cls-2 {
        fill: #fff;
      }

      .cls-3 {
        stroke: none;
      }
    </style>
  </defs>
  <g id="그룹_1212" data-name="그룹 1212" transform="translate(-921 -6606.846)">
    <g id="타원_44" data-name="타원 44" class="cls-1" transform="translate(921 6606.846)">
      <circle class="cls-3" cx="13.499" cy="13.499" r="13.499"/>
      <circle class="cls-4" cx="13.499" cy="13.499" r="12.999"/>
    </g>
    <path id="confirmation_number_FILL0_wght400_GRAD0_opsz48" class="cls-2" d="M5.038,19.076A1.006,1.006,0,0,1,4,18.038V15.39a1.859,1.859,0,0,0,1.064-.649,1.824,1.824,0,0,0,.424-1.2,1.858,1.858,0,0,0-.424-1.211A1.761,1.761,0,0,0,4,11.686V9.038A1.006,1.006,0,0,1,5.038,8H16.807a1.006,1.006,0,0,1,1.038,1.038v2.648a1.761,1.761,0,0,0-1.064.64,1.858,1.858,0,0,0-.424,1.211,1.824,1.824,0,0,0,.424,1.2,1.859,1.859,0,0,0,1.064.649v2.648a1.006,1.006,0,0,1-1.038,1.038Zm0-1.038H16.807V16.151a3.7,3.7,0,0,1-1.073-1.125,2.874,2.874,0,0,1,0-2.977,3.7,3.7,0,0,1,1.073-1.125V9.038H5.038v1.886A3.53,3.53,0,0,1,6.12,12.05a2.927,2.927,0,0,1,0,2.977,3.53,3.53,0,0,1-1.082,1.125Zm5.884-1.09a.532.532,0,1,0-.363-.156A.5.5,0,0,0,10.922,16.947Zm0-2.89a.532.532,0,1,0-.363-.156A.5.5,0,0,0,10.922,14.057Zm0-2.89a.532.532,0,1,0-.363-.156A.5.5,0,0,0,10.922,11.167Zm0,2.371Z" transform="translate(923.576 6606.86)"/>
  </g>
</svg>
