<svg xmlns="http://www.w3.org/2000/svg" width="27" height="27" viewBox="0 0 27 27">
  <defs>
    <style>
      .cls-1, .cls-2 {
        fill: none;
      }

      .cls-1 {
        stroke: #f2ba00;
      }

      .cls-3 {
        stroke: none;
      }
    </style>
  </defs>
  <g id="그룹_1213" data-name="그룹 1213" transform="translate(-921 -7716)">
    <g id="타원_58" data-name="타원 58" class="cls-1" transform="translate(921 7716)">
      <circle class="cls-3" cx="13.5" cy="13.5" r="13.5"/>
      <circle class="cls-2" cx="13.5" cy="13.5" r="13"/>
    </g>
    <g id="redeem_black_24dp" transform="translate(926.171 7721.171)">
      <path id="패스_7067" data-name="패스 7067" class="cls-2" d="M0,0H16.658V16.658H0Z"/>
      <path id="패스_7068" data-name="패스 7068" d="M14.466,4.768h-1.51A2.073,2.073,0,0,0,9.272,2.934L8.926,3.4l-.346-.471A2.073,2.073,0,0,0,4.895,4.768H3.385A1.374,1.374,0,0,0,2.007,6.153L2,13.766A1.38,1.38,0,0,0,3.385,15.15H14.466a1.38,1.38,0,0,0,1.385-1.384V6.153A1.38,1.38,0,0,0,14.466,4.768ZM11,3.384a.692.692,0,1,1-.693.692A.694.694,0,0,1,11,3.384Zm-4.155,0a.692.692,0,1,1-.693.692A.694.694,0,0,1,6.848,3.384Zm7.618,10.381H3.385V12.381H14.466Zm0-3.46H3.385V6.153H6.9L5.463,8.111l1.122.81L8.233,6.679l.693-.941.693.941,1.648,2.242,1.122-.81L10.948,6.153h3.518Z" transform="translate(-0.597 -0.597)"/>
    </g>
  </g>
</svg>
