<svg xmlns="http://www.w3.org/2000/svg" width="218" height="80" viewBox="0 0 218 80">
  <defs>
    <style>
      .cls-1 {
        fill: #707f94;
        stroke: #fff;
        stroke-width: 3px;
      }

      .cls-2, .cls-4, .cls-5 {
        fill: #fff;
      }

      .cls-3 {
        fill: #435368;
      }

      .cls-4 {
        font-size: 14px;
      }

      .cls-4, .cls-5 {
        font-family: NotoSansKR-Regular, Noto Sans KR;
      }

      .cls-5 {
        font-size: 16px;
      }

      .cls-6 {
        stroke: none;
      }

      .cls-7 {
        fill: none;
      }
    </style>
  </defs>
  <g id="그룹_1222" data-name="그룹 1222" transform="translate(-101 -3229)">
    <g id="사각형_980" data-name="사각형 980" class="cls-1" transform="translate(101 3229)">
      <rect class="cls-6" width="218" height="80"/>
      <rect class="cls-7" x="1.5" y="1.5" width="215" height="77"/>
    </g>
    <g id="그룹_1105" data-name="그룹 1105" transform="translate(119 3250)">
      <path id="패스_7142" data-name="패스 7142" class="cls-2" d="M-11968.651,8717.256l5.306-4.989,23.771.426,1.7.742v11.889l4.564-7.218,3.077.956.637,1.485-8.808,15.92.529,12.1-1.7,1.8h-27.91l-1.167-1.8Z" transform="translate(11969.203 -8711.796)"/>
      <g id="_x30_2_writing" transform="translate(0 0)">
        <g id="그룹_900" data-name="그룹 900" transform="translate(0 0)">
          <g id="그룹_899" data-name="그룹 899">
            <path id="패스_7136" data-name="패스 7136" d="M11.512,19.765l19.473,0a.671.671,0,1,0,0-1.341l-19.473,0a.671.671,0,1,0,0,1.341Z" transform="translate(-4.743 -7.697)"/>
            <path id="패스_7137" data-name="패스 7137" d="M26.209,25.889h-14.7a.671.671,0,1,0,0,1.341h14.7a.671.671,0,0,0,0-1.341Z" transform="translate(-4.649 -10.353)"/>
            <path id="패스_7138" data-name="패스 7138" d="M26.209,33.193h-14.7a.671.671,0,0,0,0,1.341h14.7a.671.671,0,0,0,0-1.341Z" transform="translate(-4.649 -12.951)"/>
            <path id="패스_7139" data-name="패스 7139" d="M26.22,40.5H11.512a.671.671,0,1,0,0,1.341H26.22a.671.671,0,1,0,0-1.341Z" transform="translate(-4.649 -15.549)"/>
            <path id="패스_7140" data-name="패스 7140" d="M30.3,48.691h0l-5.621,0a.671.671,0,0,0,0,1.341h0l5.621,0a.671.671,0,0,0,0-1.341Z" transform="translate(-9.284 -18.462)"/>
            <path id="패스_7141" data-name="패스 7141" d="M39.937,8.427,38.5,7.647a2.041,2.041,0,0,0-2.763.818l-2.813,5.179V4.428a2.651,2.651,0,0,0-2.648-2.648H6.5a.713.713,0,0,0-.466.188L1.193,6.785A.7.7,0,0,0,1,7.245V38.131a2.651,2.651,0,0,0,2.648,2.648H30.275a2.651,2.651,0,0,0,2.648-2.648V25.606l7.83-14.418A2.041,2.041,0,0,0,39.937,8.427ZM5.849,3.984V5.242A1.359,1.359,0,0,1,4.491,6.6H3.212ZM31.633,38.131a1.359,1.359,0,0,1-1.358,1.358H3.648A1.359,1.359,0,0,1,2.29,38.131V7.89h2.2A2.651,2.651,0,0,0,7.139,5.242V3.07H30.275a1.359,1.359,0,0,1,1.358,1.358V16.02L25.266,27.745a.921.921,0,0,0-.078.316l.056,4.711a.645.645,0,0,0,1.008.526l3.825-2.6c.007,0,.01-.014.017-.019a.635.635,0,0,0,.187-.206h0l1.353-2.491V38.131Zm-5.142-8.985,1.985,1.08-1.956,1.329ZM39.62,10.572,29.455,29.29l-2.747-1.5L36.445,9.867l.425-.787a.747.747,0,0,1,1.012-.3l1.438.78A.748.748,0,0,1,39.62,10.572Z" transform="translate(-1 -1.779)"/>
          </g>
        </g>
      </g>
    </g>
    <rect id="사각형_981" data-name="사각형 981" class="cls-3" width="122" height="6" transform="translate(174.613 3282.269)"/>
    <g id="그룹_1203" data-name="그룹 1203" transform="translate(0 -0.41)">
      <text id="이름과_전화번호_기입" data-name="이름과 전화번호 기입" class="cls-4" transform="translate(235.613 3284.552)"><tspan x="-61.096" y="0">이름과 전화번호 기입</tspan></text>
      <text id="_1단계" data-name="1단계" class="cls-5" transform="translate(193.613 3266.269)"><tspan x="-19.16" y="0">1단계</tspan></text>
    </g>
  </g>
</svg>
