<svg xmlns="http://www.w3.org/2000/svg" width="218" height="80" viewBox="0 0 218 80">
  <defs>
    <style>
      .cls-1 {
        fill: #707f94;
        stroke: #fff;
        stroke-width: 3px;
      }

      .cls-2 {
        fill: #435368;
      }

      .cls-3, .cls-4, .cls-5 {
        fill: #fff;
      }

      .cls-3 {
        font-size: 14px;
      }

      .cls-3, .cls-4 {
        font-family: NotoSansKR-Regular, Noto Sans KR;
      }

      .cls-4 {
        font-size: 16px;
      }

      .cls-6 {
        fill: none;
      }

      .cls-7 {
        stroke: none;
      }
    </style>
  </defs>
  <g id="그룹_1223" data-name="그룹 1223" transform="translate(-101 -3335)">
    <g id="사각형_1029" data-name="사각형 1029" class="cls-1" transform="translate(101 3335)">
      <rect class="cls-7" width="218" height="80"/>
      <rect class="cls-6" x="1.5" y="1.5" width="215" height="77"/>
    </g>
    <rect id="사각형_1030" data-name="사각형 1030" class="cls-2" width="122" height="6" transform="translate(174.613 3388.269)"/>
    <g id="그룹_1219" data-name="그룹 1219" transform="translate(0 105.59)">
      <text id="예매_신청_알림톡_전송" data-name="예매 신청 알림톡 전송" class="cls-3" transform="translate(235.613 3284.552)"><tspan x="-62.664" y="0">예매 신청 알림톡 전송</tspan></text>
      <text id="_2단계" data-name="2단계" class="cls-4" transform="translate(193.613 3266.269)"><tspan x="-19.16" y="0">2단계</tspan></text>
    </g>
    <g id="그룹_1198" data-name="그룹 1198" transform="translate(-807.637 -5904)">
      <g id="그룹_896" data-name="그룹 896" transform="translate(930 9260)">
        <path id="패스_7135" data-name="패스 7135" class="cls-5" d="M-11961.47,8693.32l1.807-1.631h21.113l1.807,1.932v35.138l-2.987.845h-21.045l-.694-1.871Z" transform="translate(11962.589 -8690.772)"/>
        <g id="phone-svgrepo-com" transform="translate(0 0)">
          <g id="그룹_882" data-name="그룹 882">
            <path id="패스_7122" data-name="패스 7122" d="M103.656,36.843a2.94,2.94,0,0,0,3.025,2.839h20.607a2.94,2.94,0,0,0,3.025-2.839v-34A2.94,2.94,0,0,0,127.288,0H106.681a2.94,2.94,0,0,0-3.025,2.839ZM105.465,6.17H128.5v23.9H105.465Zm0-3.331a1.239,1.239,0,0,1,1.216-1.258h20.607A1.239,1.239,0,0,1,128.5,2.839v1.75H105.465Zm23.039,34a1.239,1.239,0,0,1-1.216,1.258H106.681a1.239,1.239,0,0,1-1.216-1.258V31.652H128.5Z" transform="translate(-103.656)"/>
            <path id="패스_7123" data-name="패스 7123" d="M225.447,417.724a2.587,2.587,0,1,0-2.587-2.587A2.59,2.59,0,0,0,225.447,417.724Zm0-3.336a.748.748,0,1,1-.748.748A.749.749,0,0,1,225.447,414.389Z" transform="translate(-212.119 -380.283)"/>
            <path id="패스_7124" data-name="패스 7124" d="M234.306,30.061H232.59a.919.919,0,1,0,0,1.839h1.715a.919.919,0,1,0,0-1.839Z" transform="translate(-220.12 -27.701)"/>
          </g>
        </g>
      </g>
      <g id="그룹_1196" data-name="그룹 1196" transform="translate(947.378 9269.437)">
        <ellipse id="타원_73" data-name="타원 73" class="cls-5" cx="8.285" cy="6.466" rx="8.285" ry="6.466" transform="translate(1.212 2.688)"/>
        <g id="kakao-talk-svgrepo-com" transform="translate(0)">
          <path id="패스_7147" data-name="패스 7147" class="cls-6" d="M0,0H19.257V19.257H0Z"/>
          <path id="패스_7148" data-name="패스 7148" d="M4.852,15.135A6.386,6.386,0,0,1,1.5,9.744C1.5,5.97,5.31,3,9.925,3S18.35,5.97,18.35,9.744s-3.81,6.744-8.425,6.744q-.532,0-1.058-.052L5.847,18.408c-.493.262-.768.341-1.192.053-.5-.34-.478-.716-.306-1.252l.5-2.075ZM3.1,9.744a4.969,4.969,0,0,0,3.034,4.269l.566.288-.149.618-.322,1.322,2.247-1.468.294.037a9,9,0,0,0,1.151.074c3.8,0,6.82-2.351,6.82-5.139S13.729,4.6,9.925,4.6,3.1,6.956,3.1,9.744Zm11.56-.278L15.88,11.2a.379.379,0,0,1-.62.436L14.114,10l-.343.331v1.094a.379.379,0,0,1-.757,0V10.27a.378.378,0,0,1,0-.178V8.041a.379.379,0,1,1,.757,0V9.278l1.547-1.5a.379.379,0,0,1,.526.544Zm-2.373,1.545a.379.379,0,1,1,0,.757h-1.55a.379.379,0,0,1-.378-.379V8.053a.379.379,0,1,1,.757,0v2.958Zm-4.7-.876h1.07L8.15,8.765l-.558,1.37Zm2.024.392.277.742a.379.379,0,1,1-.709.265l-.239-.641H7.284l-.266.652a.379.379,0,1,1-.7-.286l1.332-3.27a.542.542,0,0,1,1.028.022l.839,2.247a.376.376,0,0,1,.1.257l0,.013ZM6.951,8.057a.378.378,0,0,1-.378.379H5.658v3a.379.379,0,0,1-.758,0v-3H3.969a.379.379,0,0,1,0-.757h2.6A.378.378,0,0,1,6.951,8.057Z" transform="translate(-0.296 -0.593)"/>
        </g>
      </g>
    </g>
  </g>
</svg>
