<svg xmlns="http://www.w3.org/2000/svg" width="78" height="78" viewBox="0 0 78 78">
  <defs>
    <style>
      .cls-1, .cls-2 {
        fill: none;
      }

      .cls-1 {
        stroke: #f2ba00;
        stroke-width: 3px;
      }

      .cls-3 {
        stroke: none;
      }
    </style>
  </defs>
  <g id="그룹_908" data-name="그룹 908" transform="translate(-921 -7716)">
    <g id="타원_58" data-name="타원 58" class="cls-1" transform="translate(921 7716)">
      <circle class="cls-3" cx="39" cy="39" r="39"/>
      <circle class="cls-2" cx="39" cy="39" r="37.5"/>
    </g>
    <g id="redeem_black_24dp" transform="translate(942 7737)">
      <path id="패스_7067" data-name="패스 7067" class="cls-2" d="M0,0H36V36H0Z"/>
      <path id="패스_7068" data-name="패스 7068" d="M28.942,7.983H25.679a4.479,4.479,0,0,0-7.963-3.964l-.748,1L16.219,4A4.48,4.48,0,0,0,8.256,7.983H4.994a2.969,2.969,0,0,0-2.979,2.991L2,27.427a2.982,2.982,0,0,0,2.994,2.991H28.942a2.982,2.982,0,0,0,2.994-2.991V10.974A2.982,2.982,0,0,0,28.942,7.983ZM21.458,4.991a1.5,1.5,0,1,1-1.5,1.5A1.5,1.5,0,0,1,21.458,4.991Zm-8.981,0a1.5,1.5,0,1,1-1.5,1.5A1.5,1.5,0,0,1,12.477,4.991ZM28.942,27.427H4.994V24.436H28.942Zm0-7.479H4.994V10.974h7.6L9.484,15.207l2.425,1.75,3.562-4.846,1.5-2.034,1.5,2.034,3.562,4.846,2.425-1.75-3.113-4.233h7.6Z" transform="translate(1.032 1.032)"/>
    </g>
  </g>
</svg>
