<svg xmlns="http://www.w3.org/2000/svg" width="78" height="78" viewBox="0 0 78 78">
  <defs>
    <style>
      .cls-1, .cls-3 {
        fill: none;
      }

      .cls-1 {
        stroke: #f2ba00;
        stroke-width: 3px;
      }

      .cls-2 {
        stroke: none;
      }
    </style>
  </defs>
  <g id="그룹_904" data-name="그룹 904" transform="translate(-921 -2324)">
    <g id="타원_43" data-name="타원 43" class="cls-1" transform="translate(921 2324)">
      <circle class="cls-2" cx="39" cy="39" r="39"/>
      <circle class="cls-3" cx="39" cy="39" r="37.5"/>
    </g>
    <path id="entrance-alt1-svgrepo-com" d="M17.662,26.917a1.5,1.5,0,1,0,2.121,2.121l8-8.031a.75.75,0,0,0,0-1.062h0l-8-8.028a1.5,1.5,0,1,0-2.121,2.121L22.6,19H2.5a1.5,1.5,0,0,0,0,3H22.6ZM34,1H14.5a1.5,1.5,0,0,0,0,3h18A1.5,1.5,0,0,1,34,5.5v30A1.5,1.5,0,0,1,32.5,37H13.75a1.5,1.5,0,0,0,0,3H34a3,3,0,0,0,3-3V4A3,3,0,0,0,34,1Z" transform="translate(937 2343)"/>
  </g>
</svg>
