<svg xmlns="http://www.w3.org/2000/svg" width="101.516" height="90.733" viewBox="0 0 101.516 90.733">
  <defs>
    <style>
      .cls-1 {
        fill: #fff;
        stroke: #ee7c49;
        stroke-width: 3px;
      }

      .cls-2 {
        fill: #ee7c49;
      }

      .cls-3 {
        stroke: none;
      }

      .cls-4 {
        fill: none;
      }
    </style>
  </defs>
  <g id="그룹_910" data-name="그룹 910" transform="translate(-432.484 -10392.533)">
    <g id="그룹_803" data-name="그룹 803" transform="translate(432.484 10392.533)">
      <g id="sky-lantern-svgrepo-com" transform="translate(0)">
        <g id="그룹_801" data-name="그룹 801" transform="translate(0)">
          <path id="패스_7078" data-name="패스 7078" d="M90.4,4.846A15.2,15.2,0,0,0,79.3,0H35.962A15.152,15.152,0,0,0,20.851,16.259c1.135,15.279,3.9,25.888,6.582,36.147,2.1,8.057,4.094,15.69,5.2,25.155a1.3,1.3,0,0,0,.066,2.594H82.558a1.3,1.3,0,0,0,.066-2.594c1.107-9.465,3.1-17.1,5.2-25.155,2.678-10.259,5.447-20.868,6.582-36.147A15.176,15.176,0,0,0,90.4,4.846ZM35.248,77.557c-1.119-9.779-3.153-17.574-5.3-25.807C27.3,41.6,24.558,31.11,23.441,16.066A12.555,12.555,0,0,1,35.962,2.6h.267c-.176.165-.351.334-.521.513-2.946,3.1-4.545,8.008-4.278,13.12a256.111,256.111,0,0,0,4.612,36.082A240.794,240.794,0,0,1,39.7,77.557H35.248Zm29.393,0H50.618V74.7a.087.087,0,0,1,.087-.087h13.85a.087.087,0,0,1,.087.087v2.856Zm-7.011-13.85a1.3,1.3,0,0,0-1.3,1.3v1.267a4.248,4.248,0,0,1-2.943-4.037c0-2.045.9-3.416,1.937-5a12.27,12.27,0,0,0,2.393-5.73A19,19,0,0,1,61.87,62.236a4.248,4.248,0,0,1-2.943,4.037V65.006A1.3,1.3,0,0,0,57.629,63.708Zm9.608,13.85V74.7a2.686,2.686,0,0,0-2.683-2.683H58.927V68.949a6.849,6.849,0,0,0,5.54-6.713c0-4.7-3.081-11.982-7.5-14.93a1.3,1.3,0,0,0-1.993,1.335c.673,3.363-.482,5.127-1.819,7.169a11.146,11.146,0,0,0-2.361,6.426,6.849,6.849,0,0,0,5.54,6.713v3.068H50.7A2.686,2.686,0,0,0,48.021,74.7v2.856H42.307A241.69,241.69,0,0,0,38.6,51.844a253.917,253.917,0,0,1-4.573-35.749c-.23-4.415,1.1-8.6,3.569-11.2A6.674,6.674,0,0,1,42.42,2.6H72.838a6.674,6.674,0,0,1,4.828,2.3c2.465,2.6,3.8,6.782,3.569,11.2a253.937,253.937,0,0,1-4.573,35.749,241.8,241.8,0,0,0-3.711,25.713H67.237Zm24.58-61.491C90.7,31.11,87.962,41.6,85.313,51.75c-2.149,8.233-4.183,16.028-5.3,25.807H75.556a240.828,240.828,0,0,1,3.66-25.245A256.133,256.133,0,0,0,83.828,16.23c.266-5.112-1.333-10.017-4.278-13.12-.17-.18-.345-.349-.521-.513H79.3a12.555,12.555,0,0,1,12.521,13.47Z" transform="translate(-20.81)"/>
        </g>
      </g>
    </g>
    <g id="그룹_802" data-name="그룹 802" transform="translate(502.733 10452.267)">
      <g id="타원_61" data-name="타원 61" class="cls-1" transform="translate(0.267)">
        <circle class="cls-3" cx="15.5" cy="15.5" r="15.5"/>
        <circle class="cls-4" cx="15.5" cy="15.5" r="14"/>
      </g>
      <rect id="사각형_854" data-name="사각형 854" class="cls-2" width="3" height="30" transform="translate(25.921 4.549) rotate(45)"/>
    </g>
  </g>
</svg>
