<svg xmlns="http://www.w3.org/2000/svg" width="78" height="78" viewBox="0 0 78 78">
  <defs>
    <style>
      .cls-1, .cls-2 {
        fill: none;
      }

      .cls-1 {
        stroke: #f2ba00;
        stroke-width: 3px;
      }

      .cls-3 {
        stroke: none;
      }
    </style>
  </defs>
  <g id="그룹_909" data-name="그룹 909" transform="translate(-921 -9990.267)">
    <g id="타원_59" data-name="타원 59" class="cls-1" transform="translate(921 9990.267)">
      <circle class="cls-3" cx="39" cy="39" r="39"/>
      <circle class="cls-2" cx="39" cy="39" r="37.5"/>
    </g>
    <g id="announcement_black_24dp" transform="translate(942 10011.267)">
      <path id="패스_7073" data-name="패스 7073" class="cls-2" d="M0,0H36V36H0Z"/>
      <path id="패스_7074" data-name="패스 7074" d="M30.8,2H5.2A3.209,3.209,0,0,0,2,5.2V34l6.4-6.4H30.8A3.209,3.209,0,0,0,34,24.4V5.2A3.209,3.209,0,0,0,30.8,2Zm0,22.4H7.072L5.2,26.272V5.2H30.8ZM16.4,6.8h3.2v9.6H16.4Zm0,12.8h3.2v3.2H16.4Z"/>
    </g>
  </g>
</svg>
