<svg id="delivery-svgrepo-com" xmlns="http://www.w3.org/2000/svg" width="88.516" height="88.516" viewBox="0 0 88.516 88.516">
  <defs>
    <style>
      .cls-1 {
        fill: #292929;
      }
    </style>
  </defs>
  <g id="그룹_811" data-name="그룹 811">
    <g id="그룹_810" data-name="그룹 810">
      <path id="패스_7079" data-name="패스 7079" class="cls-1" d="M108.568,0h-3.475L72.566,14.785v8.846l2.855-1.3V39.975H64v25.7h48.541V59.962h25.7V22.334l2.855,1.3V14.785Zm-36,42.83h2.855v5.711H72.566Zm8.566,19.987H66.855V42.83h2.855V51.4h8.566V42.83h2.855Zm28.553,0h-25.7V42.83h25.7Zm5.711-5.711h-2.855V39.975H98.264V31.409H115.4Zm19.987,0H118.252V28.553H95.409V39.975H78.277V21.037L105.712,8.566h2.236l27.436,12.471ZM138.239,19.2,108.568,5.711h-3.475L75.421,19.2V16.622L105.712,2.855h2.236l30.291,13.768Z" transform="translate(-52.579)"/>
      <path id="패스_7080" data-name="패스 7080" class="cls-1" d="M54.306,375.367a4.111,4.111,0,0,0-3.262.29L47.9,377.375l.433-1.285a3.97,3.97,0,0,0-7.448-2.74l-1.855,4.637h-4.4l-.079-.039,3.087-1.64a4.415,4.415,0,0,0,2.154-5.175,4.411,4.411,0,0,0-5.682-2.883L22.4,372.36l-4.243,2.774H8.6v-2.851H0v2.855H5.741v12.849H0v2.855H8.6V388.3l5.431,1.086,18.981.029,14.417-2.884,7.4-3.6a4.084,4.084,0,0,0,1.92-5.367A4.126,4.126,0,0,0,54.306,375.367Zm-10.772-.955a1.15,1.15,0,0,1,1.939-.237,1.1,1.1,0,0,1,.151,1.005l-.945,2.808H42.1Zm10.025,5.958-6.879,3.394-13.953,2.791H14.448L8.6,385.383v-7.4H19.022l4.493-3,11.543-4.05a1.556,1.556,0,0,1,1.245,2.843l-7.978,4.242,5.632,2.817H47.509l4.9-2.68a1.209,1.209,0,0,1,.988-.089,1.243,1.243,0,0,1,.158,2.294Z" transform="translate(0 -302.327)"/>
      <rect id="사각형_855" data-name="사각형 855" class="cls-1" width="3" height="3" transform="translate(51.516 57)"/>
      <rect id="사각형_856" data-name="사각형 856" class="cls-1" width="6" height="3" transform="translate(42.516 57)"/>
      <rect id="사각형_857" data-name="사각형 857" class="cls-1" width="14" height="3" transform="translate(40.516 51)"/>
    </g>
  </g>
</svg>
