<svg xmlns="http://www.w3.org/2000/svg" width="101" height="101" viewBox="0 0 101 101">
  <defs>
    <style>
      .cls-1 {
        fill: none;
      }
    </style>
  </defs>
  <g id="weather-svgrepo-com" transform="translate(-0.122 -0.224)">
    <path id="weather_1_" d="M47.1,80.334a1.138,1.138,0,0,1,0,1.136L39.791,94.13l-1.972-1.136,6.324-10.951H38.806a1.141,1.141,0,0,1-.987-1.709l7.311-12.66L47.1,68.81,40.778,79.761h5.336A1.158,1.158,0,0,1,47.1,80.334ZM4.884,16.487l4.235,2.447a1.14,1.14,0,0,0,1.139-1.975L6.027,14.512a1.141,1.141,0,0,0-1.143,1.975ZM7.809,29.22A1.139,1.139,0,0,0,6.669,28.08H1.779a1.139,1.139,0,1,0,0,2.279h4.89A1.139,1.139,0,0,0,7.809,29.22Zm4.8,1.139a1.139,1.139,0,0,0,1.139-1.139A15.494,15.494,0,0,1,29.223,13.743a13.311,13.311,0,0,1,5.137.715,1.138,1.138,0,1,0,.81-2.127,15.648,15.648,0,0,0-5.944-.864A17.772,17.772,0,0,0,11.474,29.22,1.129,1.129,0,0,0,12.607,30.359ZM29.22,7.809a1.139,1.139,0,0,0,1.139-1.139V1.779a1.138,1.138,0,1,0-2.276,0v4.89A1.138,1.138,0,0,0,29.22,7.809ZM21.364,67.256a1.134,1.134,0,0,0-1.557.418L12.5,80.334a1.138,1.138,0,1,0,1.972,1.136l7.308-12.66A1.132,1.132,0,0,0,21.364,67.256ZM16.959,10.261a1.144,1.144,0,0,0,.987.57,1.139,1.139,0,0,0,.987-1.709L16.487,4.884a1.141,1.141,0,0,0-1.975,1.143ZM34.024,67.256a1.134,1.134,0,0,0-1.557.418l-7.311,12.66a1.138,1.138,0,1,0,1.972,1.136l7.308-12.66A1.132,1.132,0,0,0,34.024,67.256ZM97.868,45.323A17.755,17.755,0,0,1,80.134,63.056H21.893a15.007,15.007,0,1,1,5.931-28.785A25.054,25.054,0,0,1,75.46,28.232a17.562,17.562,0,0,1,4.678-.636A17.745,17.745,0,0,1,97.868,45.323Zm-2.279,0A15.417,15.417,0,0,0,75.175,30.7a1.133,1.133,0,0,1-1.431-.665,22.769,22.769,0,0,0-43.857,6.074,1.149,1.149,0,0,1-.608.905A1.12,1.12,0,0,1,28.191,37,12.706,12.706,0,1,0,21.9,60.774H80.141A15.468,15.468,0,0,0,95.589,45.323ZM39.927,10.679a1.142,1.142,0,0,0,1.557-.418L43.93,6.027a1.14,1.14,0,1,0-1.975-1.139L39.512,9.122A1.139,1.139,0,0,0,39.927,10.679ZM71.314,68.364a1.14,1.14,0,0,0-1.614,0l-1.431,1.431-1.431-1.431a1.141,1.141,0,0,0-1.614,1.614l1.431,1.431-1.431,1.431a1.141,1.141,0,0,0,1.614,1.614l1.431-1.431L69.7,74.453a1.141,1.141,0,0,0,1.614-1.614l-1.431-1.431,1.431-1.431A1.146,1.146,0,0,0,71.314,68.364Zm9.495,12.66a1.14,1.14,0,0,0-1.614,0l-1.431,1.431-1.431-1.431a1.141,1.141,0,0,0-1.614,1.614l1.431,1.431L74.719,85.5a1.141,1.141,0,0,0,1.614,1.614l1.431-1.431,1.431,1.431A1.141,1.141,0,0,0,80.808,85.5l-1.431-1.431,1.431-1.431A1.146,1.146,0,0,0,80.808,81.024Zm-15.825,0a1.14,1.14,0,0,0-1.614,0l-1.431,1.431-1.431-1.431a1.141,1.141,0,0,0-1.614,1.614l1.431,1.431L58.894,85.5a1.141,1.141,0,0,0,1.614,1.614l1.431-1.431,1.431,1.431A1.141,1.141,0,0,0,64.984,85.5l-1.431-1.431,1.431-1.431A1.146,1.146,0,0,0,64.984,81.024ZM87.113,68.389a1.14,1.14,0,0,0-1.614,0L84.068,69.82l-1.431-1.431A1.141,1.141,0,0,0,81.024,70l1.431,1.431-1.431,1.431a1.141,1.141,0,0,0,1.614,1.614l1.431-1.431L85.5,74.479a1.141,1.141,0,0,0,1.614-1.614l-1.431-1.431L87.113,70A1.14,1.14,0,0,0,87.113,68.389Z" transform="translate(1.389 1.449)"/>
    <rect id="_Transparent_Rectangle" class="cls-1" width="101" height="101" transform="translate(0.122 0.224)"/>
  </g>
</svg>
