<svg xmlns="http://www.w3.org/2000/svg" width="146.088" height="78.09" viewBox="0 0 146.088 78.09">
  <defs>
    <style>
      .cls-1 {
        fill: #fff;
        stroke: #ee7c49;
        stroke-width: 3px;
      }

      .cls-2 {
        fill: #ee7c49;
      }

      .cls-3 {
        stroke: none;
      }

      .cls-4 {
        fill: none;
      }
    </style>
  </defs>
  <g id="그룹_911" data-name="그룹 911" transform="translate(-742.912 -10405.177)">
    <path id="ticket-svgrepo-com" d="M108.424,104.2H1.108A1.109,1.109,0,0,1,0,103.088V50.438A1.109,1.109,0,0,1,1.108,49.33H108.424a1.109,1.109,0,0,1,1.108,1.108v52.65A1.108,1.108,0,0,1,108.424,104.2Zm-25.56-2.216h24.452V51.546H82.863v5.479a1.108,1.108,0,0,1-2.216,0V51.546H2.216V101.98H80.647V95.594a1.108,1.108,0,1,1,2.216,0Zm-39.617-4.2a1.109,1.109,0,0,1-1.014-1.554L46.02,87.6H43.247a1.108,1.108,0,1,1,0-2.216h4.47a1.107,1.107,0,0,1,1.015,1.553l-4.47,10.181A1.108,1.108,0,0,1,43.246,97.779Zm-3.7,0a1.109,1.109,0,0,1-1.108-1.108V86.489a1.108,1.108,0,0,1,2.216,0V96.67A1.108,1.108,0,0,1,39.549,97.778Zm-30.05,0H8.637a1.108,1.108,0,1,1,0-2.216H9.5a1.769,1.769,0,1,0,0-3.537H8.637a1.109,1.109,0,0,1-1.108-1.108V86.49a1.109,1.109,0,0,1,1.108-1.108h3.74a1.108,1.108,0,0,1,0,2.216H9.745v2.218A3.985,3.985,0,0,1,9.5,97.778Zm90.791-.673A1.109,1.109,0,0,1,99.182,96v-.863a1.769,1.769,0,0,0-3.537,0V96a1.109,1.109,0,0,1-1.108,1.108H90.11A1.109,1.109,0,0,1,89,96v-3.74a1.108,1.108,0,1,1,2.216,0v2.632h2.218a3.985,3.985,0,0,1,7.963.245V96A1.109,1.109,0,0,1,100.29,97.105ZM81.755,92a1.109,1.109,0,0,1-1.108-1.108V84.3a1.108,1.108,0,1,1,2.216,0v6.587A1.108,1.108,0,0,1,81.755,92Zm0-11.289A1.109,1.109,0,0,1,80.647,79.6V73.016a1.108,1.108,0,0,1,2.216,0V79.6A1.108,1.108,0,0,1,81.755,80.71ZM13.743,77.725a1.108,1.108,0,0,1-1.108-1.107l-.013-16.953-3.984,0h0a1.108,1.108,0,0,1,0-2.216l5.092,0h0l5.092,0h0a1.108,1.108,0,0,1,0,2.216l-3.984,0,.012,16.953a1.108,1.108,0,0,1-1.107,1.109Zm9.078-.007a1.108,1.108,0,0,1-1.108-1.107L21.7,58.55a1.108,1.108,0,0,1,1.107-1.109h0a1.108,1.108,0,0,1,1.108,1.107l.013,18.061a1.108,1.108,0,0,1-1.107,1.109Zm4.8,0h0a1.108,1.108,0,0,1-1.108-1.1h0v-.007L26.5,58.547h0v0h0a1.108,1.108,0,0,1,1.1-1.105h0l7.7-.006h0a1.108,1.108,0,0,1,1.108,1.107l0,2.883a1.108,1.108,0,0,1-1.107,1.109h0A1.108,1.108,0,0,1,34.2,61.424V59.649l-5.484,0L28.725,75.5l5.484,0v-1.4a1.109,1.109,0,0,1,1.107-1.109h0a1.108,1.108,0,0,1,1.108,1.107l0,2.509a1.109,1.109,0,0,1-1.108,1.109l-7.7.006h0Zm11.932-.009A1.108,1.108,0,0,1,38.441,76.6l-.007-9.006c0-.016,0-.033,0-.049l-.007-9.005a1.108,1.108,0,0,1,1.107-1.109h0a1.108,1.108,0,0,1,1.108,1.107l0,6.153,6.232-6.9a1.108,1.108,0,0,1,1.645,1.485l-7.489,8.293,7.5,8.281A1.108,1.108,0,1,1,46.9,77.335l-6.243-6.891,0,6.153a1.108,1.108,0,0,1-1.107,1.109ZM52.341,77.7h0a1.108,1.108,0,0,1-1.108-1.1h0v0l-.007-9.026v-.008l-.007-9.027h0a1.109,1.109,0,0,1,1.108-1.109l7.7-.006h0a1.108,1.108,0,0,1,0,2.216l-6.591,0,.006,6.814,6.592,0h0a1.108,1.108,0,0,1,0,2.216l-6.592,0,.006,6.814,6.592,0h0a1.108,1.108,0,0,1,0,2.216l-7.7.006Zm16.532-.012a1.108,1.108,0,0,1-1.108-1.107l-.012-16.953-3.984,0h0a1.108,1.108,0,0,1,0-2.216L73.952,57.4h0a1.108,1.108,0,0,1,0,2.216l-3.984,0,.012,16.953a1.108,1.108,0,0,1-1.107,1.109Zm12.882-8.262a1.109,1.109,0,0,1-1.108-1.108V61.727a1.108,1.108,0,0,1,2.216,0v6.587A1.108,1.108,0,0,1,81.755,69.422Zm18.535-3.229H90.11a1.108,1.108,0,0,1,0-2.216H100.29a1.108,1.108,0,1,1,0,2.216Zm0-3.7a1.1,1.1,0,0,1-.445-.094l-8.627-3.788v2.773a1.108,1.108,0,0,1-2.216,0v-4.47A1.107,1.107,0,0,1,90.555,55.9l10.181,4.47a1.108,1.108,0,0,1-.445,2.123Z" transform="translate(742.912 10355.847)"/>
    <g id="그룹_809" data-name="그룹 809" transform="translate(857.733 10452.267)">
      <g id="타원_61" data-name="타원 61" class="cls-1" transform="translate(0.267)">
        <circle class="cls-3" cx="15.5" cy="15.5" r="15.5"/>
        <circle class="cls-4" cx="15.5" cy="15.5" r="14"/>
      </g>
      <rect id="사각형_854" data-name="사각형 854" class="cls-2" width="3" height="30" transform="translate(25.921 4.549) rotate(45)"/>
    </g>
  </g>
</svg>
