<svg xmlns="http://www.w3.org/2000/svg" width="78" height="78" viewBox="0 0 78 78">
  <defs>
    <style>
      .cls-1, .cls-4 {
        fill: none;
      }

      .cls-1 {
        stroke: #f2ba00;
        stroke-width: 3px;
      }

      .cls-2 {
        fill: #fff;
      }

      .cls-3 {
        stroke: none;
      }
    </style>
  </defs>
  <g id="그룹_905" data-name="그룹 905" transform="translate(-921 -3357.401)">
    <g id="타원_45" data-name="타원 45" class="cls-1" transform="translate(921 3357.401)">
      <circle class="cls-3" cx="39" cy="39" r="39"/>
      <circle class="cls-4" cx="39" cy="39" r="37.5"/>
    </g>
    <path id="directions_car_FILL0_wght400_GRAD0_opsz48" class="cls-2" d="M10,37.8v2.7A1.454,1.454,0,0,1,8.5,42h-1A1.454,1.454,0,0,1,6,40.5V24.3l4.25-12.8a2.2,2.2,0,0,1,.825-1.1A2.263,2.263,0,0,1,12.4,10H35.6a2.263,2.263,0,0,1,1.325.4,2.2,2.2,0,0,1,.825,1.1L42,24.3V40.5A1.454,1.454,0,0,1,40.5,42H39.45a1.375,1.375,0,0,1-1.05-.425A1.506,1.506,0,0,1,38,40.5V37.8Zm.15-16.5h27.7L35.1,13H12.9ZM9,24.3v0Zm5.3,8a2.572,2.572,0,0,0,1.925-.8A2.638,2.638,0,0,0,17,29.6a2.784,2.784,0,0,0-.775-1.975A2.534,2.534,0,0,0,14.3,26.8a2.817,2.817,0,0,0-2.8,2.8,2.534,2.534,0,0,0,.825,1.925A2.784,2.784,0,0,0,14.3,32.3Zm19.45,0a2.737,2.737,0,0,0,1.975-.8,2.558,2.558,0,0,0,.825-1.9,2.817,2.817,0,0,0-2.8-2.8,2.534,2.534,0,0,0-1.925.825A2.784,2.784,0,0,0,31.05,29.6a2.572,2.572,0,0,0,.8,1.925A2.638,2.638,0,0,0,33.75,32.3ZM9,34.8H39V24.3H9Z" transform="translate(936 3370)"/>
  </g>
</svg>
