<svg xmlns="http://www.w3.org/2000/svg" width="101.53" height="98.978" viewBox="0 0 101.53 98.978">
  <defs>
    <style>
      .cls-1 {
        fill: #fff;
      }
    </style>
  </defs>
  <g id="그룹_901" data-name="그룹 901" transform="translate(-589 -9314.117)">
    <path id="패스_7142" data-name="패스 7142" class="cls-1" d="M-11968.651,8724.939l13.48-12.672,60.394,1.079,4.313,1.887v30.2l11.594-18.334,7.818,2.427,1.618,3.774-22.378,40.441,1.348,30.736-4.313,4.583h-70.908l-2.966-4.583Z" transform="translate(12559 603)"/>
    <g id="_x30_2_writing" transform="translate(588 9312.338)">
      <g id="그룹_900" data-name="그룹 900" transform="translate(1 1.779)">
        <g id="그룹_899" data-name="그룹 899">
          <path id="패스_7136" data-name="패스 7136" d="M12.479,21.7,60.038,21.7a1.638,1.638,0,0,0,0-3.275l-47.558.006a1.638,1.638,0,1,0,0,3.275Z" transform="translate(5.275 8.831)"/>
          <path id="패스_7137" data-name="패스 7137" d="M48.371,25.889H12.479a1.638,1.638,0,0,0,0,3.275H48.371a1.638,1.638,0,0,0,0-3.275Z" transform="translate(5.275 13.592)"/>
          <path id="패스_7138" data-name="패스 7138" d="M48.371,33.193H12.479a1.638,1.638,0,0,0,0,3.275H48.371a1.638,1.638,0,0,0,0-3.275Z" transform="translate(5.275 18.25)"/>
          <path id="패스_7139" data-name="패스 7139" d="M48.4,40.5H12.479a1.638,1.638,0,0,0,0,3.275H48.4a1.638,1.638,0,0,0,0-3.275Z" transform="translate(5.275 22.909)"/>
          <path id="패스_7140" data-name="패스 7140" d="M39.378,48.691h0L25.65,48.7a1.638,1.638,0,0,0,0,3.275h0l13.727-.006a1.638,1.638,0,0,0,0-3.275Z" transform="translate(13.673 28.131)"/>
          <path id="패스_7141" data-name="패스 7141" d="M99.832,18.65l-3.649-1.98a5.181,5.181,0,0,0-7.013,2.076L82.029,31.89V8.5a6.729,6.729,0,0,0-6.721-6.721H14.973a1.81,1.81,0,0,0-1.183.477L1.489,14.484A1.787,1.787,0,0,0,1,15.651V94.035a6.729,6.729,0,0,0,6.721,6.721H75.308a6.729,6.729,0,0,0,6.721-6.721V62.25l19.876-36.591A5.179,5.179,0,0,0,99.832,18.65ZM13.307,7.375v3.192a3.45,3.45,0,0,1-3.446,3.446H6.614Zm65.447,86.66a3.45,3.45,0,0,1-3.446,3.446H7.721a3.45,3.45,0,0,1-3.446-3.446V17.288H9.861a6.729,6.729,0,0,0,6.721-6.721V5.054H75.308A3.45,3.45,0,0,1,78.754,8.5V37.92L62.592,67.676a2.338,2.338,0,0,0-.2.8l.141,11.956a1.638,1.638,0,0,0,2.558,1.335l9.709-6.6c.018-.012.026-.035.044-.048a1.611,1.611,0,0,0,.474-.524h0l3.434-6.321V94.035ZM65.7,71.232l5.038,2.741-4.965,3.373ZM99.027,24.1l-25.8,47.5L66.252,67.8,90.97,22.3l1.078-2a1.9,1.9,0,0,1,2.57-.76l3.649,1.98A1.9,1.9,0,0,1,99.027,24.1Z" transform="translate(-1 -1.779)"/>
        </g>
      </g>
    </g>
  </g>
</svg>
