<svg xmlns="http://www.w3.org/2000/svg" width="90.651" height="98.189" viewBox="0 0 90.651 98.189">
  <defs>
    <style>
      .cls-1 {
        fill: #fff;
      }

      .cls-2 {
        fill: none;
      }
    </style>
  </defs>
  <g id="그룹_984" data-name="그룹 984" transform="translate(-914 -9366)">
    <g id="그룹_896" data-name="그룹 896" transform="translate(319.752 74)">
      <path id="패스_7135" data-name="패스 7135" class="cls-1" d="M-11961.47,8695.724l4.469-4.033h52.242l4.468,4.779v86.943l-7.389,2.092h-52.071l-1.719-4.633Z" transform="translate(12558.485 602.578)"/>
      <g id="phone-svgrepo-com" transform="translate(594.248 9292)">
        <g id="그룹_882" data-name="그룹 882">
          <path id="패스_7122" data-name="패스 7122" d="M103.656,91.165a7.274,7.274,0,0,0,7.484,7.025h50.991a7.274,7.274,0,0,0,7.484-7.025V7.025A7.274,7.274,0,0,0,162.131,0H111.14a7.274,7.274,0,0,0-7.484,7.025Zm4.477-75.9h57.006V74.408H108.133Zm0-8.241a3.065,3.065,0,0,1,3.008-3.113h50.991a3.065,3.065,0,0,1,3.008,3.113v4.329H108.133Zm57.006,84.14a3.065,3.065,0,0,1-3.008,3.113H111.14a3.065,3.065,0,0,1-3.008-3.113V78.32h57.006Z" transform="translate(-103.656)"/>
          <path id="패스_7123" data-name="패스 7123" d="M229.262,425.354a6.4,6.4,0,1,0-6.4-6.4A6.409,6.409,0,0,0,229.262,425.354Zm0-8.253a1.852,1.852,0,1,1-1.852,1.852A1.854,1.854,0,0,1,229.262,417.1Z" transform="translate(-196.282 -332.71)"/>
          <path id="패스_7124" data-name="패스 7124" d="M238.191,30.061h-4.245a2.275,2.275,0,1,0,0,4.55h4.245a2.275,2.275,0,1,0,0-4.55Z" transform="translate(-203.089 -24.222)"/>
        </g>
      </g>
    </g>
    <ellipse id="타원_73" data-name="타원 73" class="cls-1" cx="20.5" cy="16" rx="20.5" ry="16" transform="translate(960 9396)"/>
    <g id="kakao-talk-svgrepo-com" transform="translate(957 9389.35)">
      <path id="패스_7147" data-name="패스 7147" class="cls-2" d="M0,0H47.65V47.65H0Z"/>
      <path id="패스_7148" data-name="패스 7148" d="M9.8,33.026c-5.134-3.091-8.3-7.964-8.3-13.338C1.5,10.348,10.927,3,22.347,3s20.847,7.348,20.847,16.688S33.767,36.375,22.347,36.375q-1.316,0-2.617-.129l-7.475,4.88c-1.221.647-1.9.844-2.948.131-1.231-.842-1.183-1.771-.756-3.1L9.8,33.026ZM5.471,19.688c0,4.233,2.815,8.186,7.507,10.563l1.4.713-.369,1.529-.8,3.272,5.559-3.633.727.091a22.26,22.26,0,0,0,2.847.183c9.413,0,16.876-5.817,16.876-12.717S31.76,6.971,22.347,6.971,5.471,12.788,5.471,19.688ZM34.075,19l3.006,4.279a.938.938,0,0,1-1.535,1.078l-2.835-4.036-.848.82v2.706a.937.937,0,0,1-1.874,0V20.99a.935.935,0,0,1,0-.441V15.472a.937.937,0,0,1,1.874,0v3.062l3.828-3.7a.937.937,0,0,1,1.3,1.346ZM28.2,22.823a.937.937,0,1,1,0,1.874H24.366a.937.937,0,0,1-.935-.937V15.5a.937.937,0,1,1,1.872,0v7.32ZM16.573,20.654h2.649l-1.267-3.389-1.382,3.389Zm5.009.969.685,1.837a.937.937,0,1,1-1.755.655l-.592-1.586h-4.11l-.657,1.614a.937.937,0,1,1-1.735-.709l3.3-8.091a1.342,1.342,0,0,1,2.543.054l2.077,5.559a.931.931,0,0,1,.252.635l0,.032Zm-6.6-6.111a.936.936,0,0,1-.935.937H11.789v7.418a.938.938,0,0,1-1.876,0V16.449h-2.3a.937.937,0,1,1,0-1.874h6.443A.936.936,0,0,1,14.987,15.512Z" transform="translate(1.478 2.956)"/>
    </g>
  </g>
</svg>
