<svg xmlns="http://www.w3.org/2000/svg" width="65.96" height="98.189" viewBox="0 0 65.96 98.189">
  <defs>
    <style>
      .cls-1 {
        fill: #fff;
      }

      .cls-2 {
        stroke: #000;
        stroke-width: 2px;
      }
    </style>
  </defs>
  <g id="그룹_921" data-name="그룹 921" transform="translate(-1217 -9366)">
    <g id="그룹_916" data-name="그룹 916" transform="translate(309)">
      <g id="그룹_896" data-name="그룹 896" transform="translate(313.752 74)">
        <path id="패스_7135" data-name="패스 7135" class="cls-1" d="M-11961.47,8695.724l4.469-4.033h52.242l4.468,4.779v86.943l-7.389,2.092h-52.071l-1.719-4.633Z" transform="translate(12558.485 602.578)"/>
        <g id="phone-svgrepo-com" transform="translate(594.248 9292)">
          <g id="그룹_882" data-name="그룹 882">
            <path id="패스_7122" data-name="패스 7122" d="M103.656,91.165a7.274,7.274,0,0,0,7.484,7.025h50.991a7.274,7.274,0,0,0,7.484-7.025V7.025A7.274,7.274,0,0,0,162.131,0H111.14a7.274,7.274,0,0,0-7.484,7.025Zm4.477-75.9h57.006V74.408H108.133Zm0-8.241a3.065,3.065,0,0,1,3.008-3.113h50.991a3.065,3.065,0,0,1,3.008,3.113v4.329H108.133Zm57.006,84.14a3.065,3.065,0,0,1-3.008,3.113H111.14a3.065,3.065,0,0,1-3.008-3.113V78.32h57.006Z" transform="translate(-103.656)"/>
            <path id="패스_7123" data-name="패스 7123" d="M229.262,425.354a6.4,6.4,0,1,0-6.4-6.4A6.409,6.409,0,0,0,229.262,425.354Zm0-8.253a1.852,1.852,0,1,1-1.852,1.852A1.854,1.854,0,0,1,229.262,417.1Z" transform="translate(-196.282 -332.71)"/>
            <path id="패스_7124" data-name="패스 7124" d="M238.191,30.061h-4.245a2.275,2.275,0,1,0,0,4.55h4.245a2.275,2.275,0,1,0,0-4.55Z" transform="translate(-203.089 -24.222)"/>
          </g>
        </g>
      </g>
    </g>
    <g id="calendar-svgrepo-com" transform="translate(1233 9392.509)">
      <g id="그룹_918" data-name="그룹 918">
        <g id="그룹_917" data-name="그룹 917">
          <path id="패스_7149" data-name="패스 7149" class="cls-2" d="M28.665,3.434V2.149a1.954,1.954,0,1,0-3.888,0V3.434H8.305V2.149A2.057,2.057,0,0,0,6.362,0,2.057,2.057,0,0,0,4.418,2.149V3.434H0V36.586H33.083V3.434ZM26.1,2.149a.624.624,0,1,1,1.241,0v3.24H26.1V2.149Zm-20.36,0a.656.656,0,0,1,.62-.686.656.656,0,0,1,.62.686v3.24H5.741ZM31.76,35.123H1.323V12.887H31.76Zm0-23.7H1.323V4.9H4.418V6.853H8.305V4.9H24.778V6.853h3.888V4.9H31.76Z"/>
        </g>
      </g>
      <g id="그룹_920" data-name="그룹 920" transform="translate(7.928 17.465)">
        <g id="그룹_919" data-name="그룹 919">
          <path id="패스_7150" data-name="패스 7150" class="cls-2" d="M146.433,235.01l-10.272,10.376-4.876-4.925-1.04,1.029,5.916,5.977,11.312-11.427Z" transform="translate(-130.245 -235.01)"/>
        </g>
      </g>
    </g>
  </g>
</svg>
